<svg width="371" height="241" viewBox="0 0 371 241" fill="none" xmlns="http://www.w3.org/2000/svg">
<ellipse cx="225.681" cy="28.8382" rx="24.8936" ry="23.3971" fill="#EBF9FA"/>
<ellipse cx="188.617" cy="52.2353" rx="37.617" ry="37" fill="#EBF9FA"/>
<ellipse cx="238.404" cy="74" rx="37.617" ry="37" fill="#EBF9FA"/>
<ellipse cx="257.213" cy="60.9412" rx="37.617" ry="37" fill="#EBF9FA"/>
<ellipse cx="276.021" cy="37" rx="37.617" ry="37" fill="#EBF9FA"/>
<ellipse cx="283.766" cy="60.9412" rx="37.617" ry="37" fill="#EBF9FA"/>
<ellipse cx="321.383" cy="53.3235" rx="37.617" ry="37" fill="#EBF9FA"/>
<ellipse cx="287.035" cy="128.926" rx="15.6782" ry="14.5441" fill="#E9FAFB"/>
<ellipse cx="263.691" cy="143.471" rx="23.6915" ry="23" fill="#E9FAFB"/>
<ellipse cx="295.048" cy="157" rx="23.6915" ry="23" fill="#E9FAFB"/>
<ellipse cx="306.894" cy="148.882" rx="23.6915" ry="23" fill="#E9FAFB"/>
<ellipse cx="318.739" cy="134" rx="23.6915" ry="23" fill="#E9FAFB"/>
<ellipse cx="323.617" cy="148.882" rx="23.6915" ry="23" fill="#E9FAFB"/>
<ellipse cx="347.309" cy="144.147" rx="23.6915" ry="23" fill="#E9FAFB"/>
<ellipse cx="133.52" cy="157.345" rx="24.8936" ry="23.3971" transform="rotate(179.859 133.52 157.345)" fill="#EBF9FA"/>
<ellipse cx="170.526" cy="133.857" rx="37.617" ry="37" transform="rotate(179.859 170.526 133.857)" fill="#EBF9FA"/>
<ellipse cx="120.686" cy="112.214" rx="37.617" ry="37" transform="rotate(179.859 120.686 112.214)" fill="#EBF9FA"/>
<ellipse cx="101.91" cy="125.319" rx="37.617" ry="37" transform="rotate(179.859 101.91 125.319)" fill="#EBF9FA"/>
<ellipse cx="83.16" cy="149.307" rx="37.617" ry="37" transform="rotate(179.859 83.16 149.307)" fill="#EBF9FA"/>
<ellipse cx="75.3563" cy="125.384" rx="37.617" ry="37" transform="rotate(179.859 75.3563 125.384)" fill="#EBF9FA"/>
<ellipse cx="37.7581" cy="133.094" rx="37.617" ry="37" transform="rotate(179.859 37.7581 133.094)" fill="#EBF9FA"/>
<path d="M192.5 0L219.78 58.5459H165.22L192.5 0Z" fill="#C0EEF1"/>
<rect x="166" y="58.2857" width="53" height="145.714" fill="#9EE4EA"/>
<path d="M169.5 37.4694L173.397 58.546H165.603L169.5 37.4694Z" fill="#9EE4EA"/>
<path d="M215.5 37.4694L219.397 58.546H211.603L215.5 37.4694Z" fill="#9EE4EA"/>
<path d="M177 77.898C177 75.6888 178.791 73.8979 181 73.8979C183.209 73.8979 185 75.6888 185 77.8979V96.7959H177V77.898Z" fill="#839D9F"/>
<path d="M189 77.898C189 75.6888 190.791 73.8979 193 73.8979C195.209 73.8979 197 75.6888 197 77.8979V96.7959H189V77.898Z" fill="#839D9F"/>
<path d="M200 77.898C200 75.6888 201.791 73.8979 204 73.8979C206.209 73.8979 208 75.6888 208 77.8979V96.7959H200V77.898Z" fill="#839D9F"/>
<path d="M258.55 168.769C258.55 156.166 268.767 145.949 281.37 145.949C293.973 145.949 304.189 156.166 304.189 168.769V201.712C304.189 203.252 302.941 204.5 301.401 204.5H261.338C259.799 204.5 258.55 203.252 258.55 201.712V168.769Z" fill="#F09B2A"/>
<rect width="16.4928" height="54.4492" rx="4" transform="matrix(0.714178 0.698933 -0.704541 0.710682 281.542 134.88)" fill="#B08B68"/>
<rect width="16.8366" height="51.9016" rx="4" transform="matrix(-0.696888 0.718182 0.721622 0.691251 281.859 135.11)" fill="#B08B68"/>
<path d="M272.593 190.356C272.593 185.371 276.635 181.329 281.621 181.329C286.607 181.329 290.648 185.371 290.648 190.356V204.251H272.593V190.356Z" fill="#CB9E75"/>
<ellipse cx="287.138" cy="193.786" rx="1.50459" ry="1.49492" fill="#B08B68"/>
<path d="M187.55 204.769C187.55 192.166 197.767 181.949 210.37 181.949C222.973 181.949 233.189 192.166 233.189 204.769V237.712C233.189 239.252 231.941 240.5 230.401 240.5H190.338C188.799 240.5 187.55 239.252 187.55 237.712V204.769Z" fill="#F09B2A"/>
<rect width="16.4928" height="54.4492" rx="4" transform="matrix(0.714178 0.698933 -0.704541 0.710682 210.542 170.88)" fill="#B08B68"/>
<rect width="16.8366" height="51.9016" rx="4" transform="matrix(-0.696888 0.718182 0.721622 0.691251 210.859 171.11)" fill="#B08B68"/>
<path d="M201.593 226.356C201.593 221.371 205.635 217.329 210.621 217.329C215.607 217.329 219.648 221.371 219.648 226.356V240.251H201.593V226.356Z" fill="#CB9E75"/>
<ellipse cx="216.138" cy="229.786" rx="1.50459" ry="1.49492" fill="#B08B68"/>
<path d="M96.5503 168.769C96.5503 156.166 106.767 145.949 119.37 145.949C131.973 145.949 142.189 156.166 142.189 168.769V201.712C142.189 203.252 140.941 204.5 139.401 204.5H99.3384C97.7986 204.5 96.5503 203.252 96.5503 201.712V168.769Z" fill="#F09B2A"/>
<rect width="16.4928" height="54.4492" rx="4" transform="matrix(0.714178 0.698933 -0.704541 0.710682 119.542 134.88)" fill="#B08B68"/>
<rect width="16.8366" height="51.9016" rx="4" transform="matrix(-0.696888 0.718182 0.721622 0.691251 119.859 135.11)" fill="#B08B68"/>
<path d="M110.593 190.356C110.593 185.371 114.635 181.329 119.621 181.329C124.607 181.329 128.648 185.371 128.648 190.356V204.251H110.593V190.356Z" fill="#CB9E75"/>
<ellipse cx="125.138" cy="193.786" rx="1.50459" ry="1.49492" fill="#B08B68"/>
</svg>
