<svg width="423" height="333" viewBox="0 0 423 333" fill="none" xmlns="http://www.w3.org/2000/svg">
<rect width="31.8616" height="76.3621" rx="10" transform="matrix(-0.176663 0.987365 0.929573 0.361778 315.671 193.473)" fill="#F2C794"/>
<path d="M329.413 194.372C323.818 193.866 319.334 198.096 319.488 203.733L319.834 216.35C319.985 221.889 324.562 226.668 330.055 227.025L373.97 229.881C380.519 230.307 385.109 224.347 383.226 217.862L379.807 206.086C378.541 201.729 374.656 198.468 370.253 198.07L329.413 194.372Z" fill="#F2C794"/>
<rect width="14.1255" height="43.2077" rx="7.06273" transform="matrix(0.116033 0.996291 0.993759 -0.0789897 294.713 197.012)" fill="#F2C794"/>
<path d="M284.581 219.278C277.261 219.722 271.423 227.664 273.908 234.869L275.786 240.316C277.157 244.294 280.767 246.783 284.805 246.326C307.019 243.813 320.085 236.959 337.653 221.721C341.007 218.813 342.265 213.985 340.851 209.884L338.891 204.202C336.446 197.11 327.716 195.901 322.237 201.341C310.382 213.113 299.566 218.37 284.581 219.278Z" fill="#F2C794"/>
<path d="M269.231 217.128C262.979 215.219 256.875 218.901 256.695 225.383C256.576 229.659 259.136 233.942 263.146 235.69C274.707 240.731 283.331 241.992 294.947 241.282C299.328 241.015 302.432 237.459 302.559 232.902L302.565 232.698C302.74 226.434 297.333 220.873 291.233 220.646C283.06 220.342 276.418 219.322 269.231 217.128Z" fill="#F2C794"/>
<path d="M244.182 205.101C242.035 202.256 238.435 202.499 237.345 205.685C236.703 207.56 237.183 209.898 238.513 211.493C251.011 226.477 258.248 237.361 272.986 244.503C276.038 245.981 279.14 244.444 280.431 241.144C282.412 236.081 279.308 229.493 274.507 227.933C261.89 223.835 253.634 217.618 244.182 205.101Z" fill="#F2C794"/>
<path d="M254.344 208.303C252.857 205.161 249.357 204.616 247.832 207.472C247.021 208.992 247.058 211.054 247.902 212.687C254.756 225.961 258.409 235.652 268.425 242.201C270.889 243.812 273.724 242.773 275.274 240.092C277.919 235.521 275.639 228.739 271.241 226.638C263.645 223.012 258.813 217.742 254.344 208.303Z" fill="#F2C794"/>
<path d="M273.097 228.255C270.913 225.642 266.964 225.258 266.229 228.344C265.987 229.358 266.187 230.523 266.749 231.516C271.271 239.511 273.779 246.118 279.852 246.542C281.647 246.668 282.954 245.201 283.438 243.304L284.063 240.859C285.166 236.539 280.51 232.444 276.467 230.842C275.251 230.361 274.146 229.51 273.097 228.255Z" fill="#F2C794"/>
<path d="M120.644 227.033L38.873 185.211C34.9442 183.202 34.4619 177.743 37.9754 175.052L93.0662 132.858C96.5797 130.167 101.671 132.097 102.541 136.449L120.644 227.033Z" fill="#FFEBF2"/>
<ellipse rx="43.246" ry="43.7788" transform="matrix(0.794667 -0.607046 0.601225 0.79908 61.4644 148.626)" fill="#FFEBF2"/>
<path d="M121.093 227.574L88.6542 141.122C87.0848 136.939 90.384 132.587 94.7818 133.039L163.963 140.146C168.361 140.597 170.814 145.54 168.52 149.326L121.093 227.574Z" fill="#FFEBF2"/>
<ellipse rx="43.4925" ry="43.5339" transform="matrix(0.991005 0.103053 -0.0921814 0.999389 129.949 129.933)" fill="#FFEBF2"/>
<path d="M223.172 135.409L174.31 88.9995C171.144 85.9932 172.158 80.6948 176.212 79.0526L218.372 61.9755C222.427 60.3333 226.797 63.4511 226.576 67.8288L223.172 135.409Z" fill="#FFEBF2"/>
<ellipse rx="31.367" ry="33.4138" transform="matrix(0.927347 -0.374201 0.36934 0.929294 195.38 65.7741)" fill="#FFEBF2"/>
<path d="M223.392 135.898L216.262 68.6073C215.783 64.0846 219.976 60.8022 224.056 62.5068L267.286 80.5704C271.365 82.275 272.513 87.7892 269.42 90.819L223.392 135.898Z" fill="#FFEBF2"/>
<ellipse rx="32.3268" ry="32.4861" transform="matrix(0.919789 0.385684 -0.329121 0.94703 247.281 66.8213)" fill="#FFEBF2"/>
<path d="M346.117 168.609L329.305 153.718C325.97 150.764 326.916 145.308 331.054 143.632L339.834 140.077C343.972 138.402 348.403 141.68 348.024 146.138L346.117 168.609Z" fill="#FFEBF2"/>
<ellipse rx="14.1301" ry="13.7763" transform="matrix(0.927347 -0.374201 0.36934 0.929294 334.654 139.901)" fill="#FFEBF2"/>
<path d="M346.208 168.811L344.359 146.243C344 141.856 348.436 138.512 352.594 140.037L361.342 143.244C365.5 144.768 366.499 150.104 363.197 153.149L346.208 168.811Z" fill="#FFEBF2"/>
<ellipse rx="13.9681" ry="13.9405" transform="matrix(0.936024 0.344457 -0.370315 0.931717 357.746 139.649)" fill="#FFEBF2"/>
<path d="M254.44 122.124L292.763 122.025C281.665 142.442 280.697 155.391 289.59 176.206C291.039 179.598 288.635 183.469 284.946 183.478L262.201 183.537C258.606 183.546 256.189 179.871 257.459 176.507C263.9 159.448 264.45 146.681 254.44 122.124Z" fill="#B08B68"/>
<ellipse rx="27.8714" ry="28.0837" transform="matrix(0.999997 -0.00258484 0.00254591 0.999997 273.582 114.176)" fill="#A3D585"/>
<ellipse rx="9.58079" ry="9.65376" transform="matrix(0.999997 -0.00258484 0.00254591 0.999997 286.687 129.939)" fill="#A3D585"/>
<ellipse rx="9.58079" ry="9.65376" transform="matrix(0.999997 -0.00258484 0.00254591 0.999997 297.12 122.891)" fill="#A3D585"/>
<ellipse rx="9.58079" ry="9.65376" transform="matrix(0.999997 -0.00258484 0.00254591 0.999997 296.209 107.096)" fill="#A3D585"/>
<ellipse rx="9.58079" ry="9.65376" transform="matrix(0.999997 -0.00258484 0.00254591 0.999997 288.339 94.8301)" fill="#A3D585"/>
<ellipse rx="9.58079" ry="9.65376" transform="matrix(0.999997 -0.00258484 0.00254591 0.999997 274.384 86.9677)" fill="#A3D585"/>
<ellipse rx="9.58079" ry="9.65376" transform="matrix(0.999997 -0.00258484 0.00254591 0.999997 259.593 93.1493)" fill="#A3D585"/>
<ellipse rx="9.58079" ry="9.65376" transform="matrix(0.999997 -0.00258484 0.00254591 0.999997 250.908 102.825)" fill="#A3D585"/>
<ellipse rx="9.58079" ry="9.65376" transform="matrix(0.999997 -0.00258484 0.00254591 0.999997 248.332 117.752)" fill="#A3D585"/>
<ellipse rx="9.58079" ry="9.65376" transform="matrix(0.999997 -0.00258484 0.00254591 0.999997 256.2 129.14)" fill="#A3D585"/>
<ellipse rx="9.58079" ry="9.65376" transform="matrix(0.999997 -0.00258484 0.00254591 0.999997 265.799 136.136)" fill="#A3D585"/>
<ellipse rx="9.58079" ry="9.65376" transform="matrix(0.999997 -0.00258484 0.00254591 0.999997 279.741 138.733)" fill="#A3D585"/>
<path d="M141.97 168.64C141.97 146.753 159.713 129.01 181.599 129.01V129.01C203.486 129.01 221.229 146.753 221.229 168.64V227.219C221.229 229.931 219.031 232.13 216.319 232.13H146.88C144.168 232.13 141.97 229.931 141.97 227.219V168.64Z" fill="#F09B2A"/>
<rect width="28.7957" height="95.3855" rx="8" transform="matrix(0.710372 0.705035 -0.698438 0.714485 181.899 109.514)" fill="#B08B68"/>
<rect width="29.499" height="90.6051" rx="8" transform="matrix(-0.690754 0.721923 0.717877 0.697385 182.45 109.92)" fill="#B08B68"/>
<path d="M166.357 201.321C166.357 195.798 170.835 191.321 176.357 191.321H187.713C193.236 191.321 197.713 195.798 197.713 201.321V231.691H166.357V201.321Z" fill="#8C602B"/>
<ellipse cx="191.616" cy="213.261" rx="2.61294" ry="2.63284" fill="#C4C4C4"/>
</svg>
