<svg width="301" height="267" viewBox="0 0 301 267" fill="none" xmlns="http://www.w3.org/2000/svg">
<path d="M301 186.2C301 255.512 288.5 274.2 158 263.7C77.0903 263.7 11.5 207.512 11.5 138.2C11.5 68.888 48.5001 85.8684 128.5 16.3684C208.5 -53.1316 301 116.888 301 186.2Z" fill="white"/>
<rect x="124" y="48.6998" width="100" height="32" rx="15" fill="#FE7C7C"/>
<rect x="124" y="68.6998" width="100" height="60" fill="#E1DFDF"/>
<path d="M162.545 81.755C162.838 80.8193 164.162 80.8193 164.455 81.755L166.087 86.9808C166.218 87.3983 166.604 87.6826 167.042 87.6826H172.406C173.365 87.6826 173.774 88.9022 173.009 89.4805L168.602 92.81C168.266 93.0645 168.125 93.5031 168.251 93.906L169.918 99.2419C170.208 100.17 169.136 100.924 168.36 100.338L164.103 97.1209C163.746 96.8514 163.254 96.8514 162.897 97.1209L158.64 100.338C157.864 100.924 156.792 100.17 157.082 99.2419L158.749 93.906C158.875 93.5031 158.734 93.0645 158.398 92.81L153.991 89.4805C153.226 88.9022 153.635 87.6826 154.594 87.6826H159.958C160.396 87.6826 160.782 87.3983 160.913 86.9808L162.545 81.755Z" fill="#FFEFB7"/>
<rect width="23.3032" height="25.9465" transform="matrix(-0.989534 -0.144297 -0.12822 0.991746 124.683 127.173)" fill="#B08B68"/>
<path d="M97.8333 112.373C97.8333 126.393 106.019 141.772 117.812 141.772C129.605 141.772 140.539 126.393 140.539 112.373C140.539 98.3531 130.979 86.9878 119.186 86.9878C107.393 86.9878 97.8333 98.3531 97.8333 112.373Z" fill="#CB9E75"/>
<path d="M100.37 121.991C101.09 121.658 101.913 122.041 102.103 122.817C103.259 127.537 103.261 130.521 107.956 136.597C110.423 139.789 109.997 140.173 108.881 139.704C106.541 138.722 104.903 136.575 103.48 134.43L101.742 131.808C101.148 130.912 100.741 129.895 100.546 128.818L99.5878 123.506C99.4756 122.884 99.8013 122.253 100.37 121.991Z" fill="#B08B68"/>
<path d="M141.179 154.973C140.302 151.241 137.356 148.305 133.59 147.641C129.371 146.897 125.131 146.325 120.87 145.895C113.868 145.187 107.77 166.185 103.586 171.799C99.4919 177.291 108.08 183.843 114.957 183.843L135.49 183.843C141.887 183.843 146.568 177.899 145.097 171.642L141.179 154.973Z" fill="#727272"/>
<path d="M100.091 93.6636C110.931 82.4179 119.277 85.1006 133 89.4879C140.655 98.879 145.132 95.7954 140 101.488C124.742 98.2119 109 92.4878 100.091 123.988C91.6826 111.476 90.6685 105.449 100.091 93.6636Z" fill="#704C23"/>
<path d="M116.767 153.54C116.253 148.47 112.01 144.606 106.923 144.801C98.1735 145.136 91.1504 146.013 82.1148 147.83C78.0918 148.638 75.0076 151.91 74.3135 155.964L71.5235 172.259C70.4795 178.357 75.1229 183.871 81.2804 183.847L108.676 183.737C114.623 183.713 119.296 178.514 118.696 172.588L116.767 153.54Z" fill="#727272"/>
<path d="M113.428 171.075L122.241 143.958L104.853 143.872L113.428 171.075Z" fill="#B08B68"/>
<path d="M202.483 124.414C202.314 115.8 209.251 108.726 217.867 108.726C226.365 108.726 233.254 115.615 233.254 124.113V160.611C233.254 166.367 229.966 171.618 224.788 174.132C214.92 178.923 203.411 171.872 203.196 160.905L202.483 124.414Z" fill="#704C23"/>
<rect width="23.3032" height="25.9465" transform="matrix(0.989534 -0.144297 0.12822 0.991746 223.317 130.5)" fill="#FFB876"/>
<path d="M216.436 87.3888C217.355 86.783 218.532 86.7805 219.51 87.3351C221.838 88.6549 221.835 92.3434 219.919 94.1495C212.953 100.717 211.06 111.485 210.546 116.856C210.362 118.782 209.116 120.442 207.324 120.917C204.961 121.543 202.514 119.894 202.294 117.339C201.309 105.926 204.37 95.3458 216.436 87.3888Z" fill="#704C23"/>
<path d="M250.166 115.7C250.166 129.72 241.981 145.099 230.188 145.099C218.395 145.099 207.461 129.72 207.461 115.7C207.461 101.68 217.021 90.3148 228.814 90.3148C240.607 90.3148 250.166 101.68 250.166 115.7Z" fill="#FDCA9B"/>
<path d="M247.63 125.318C246.91 124.985 246.087 125.368 245.897 126.144C244.741 130.864 244.739 133.848 240.044 139.924C237.577 143.116 238.003 143.5 239.119 143.031C241.459 142.049 243.097 139.902 244.52 137.757L246.258 135.135C246.852 134.239 247.259 133.222 247.454 132.145L248.412 126.833C248.524 126.211 248.199 125.58 247.63 125.318Z" fill="#FFB876"/>
<path d="M257.778 107.828C255.167 113.475 247.658 106.032 238.029 101.011C228.4 95.9903 215.048 93.1174 217.658 87.47C220.269 81.8227 232.45 78.0932 242.079 83.114C251.708 88.1349 260.388 102.181 257.778 107.828Z" fill="#704C23"/>
<path d="M194.983 158.406C195.876 154.609 198.876 151.626 202.695 150.883C211.527 149.165 218.446 148.394 227.177 148.154C232.275 148.013 236.495 151.923 236.961 157.006L238.717 176.129C239.259 182.034 234.578 187.17 228.656 187.17L200.698 187.17C194.3 187.17 189.62 181.226 191.09 174.969L194.983 158.406Z" fill="#2183CF"/>
<path d="M231.233 156.867C231.747 151.797 235.99 147.933 241.077 148.128C249.826 148.463 256.85 149.34 265.885 151.157C269.908 151.965 272.992 155.237 273.686 159.291L276.477 175.586C277.521 181.684 272.877 187.198 266.72 187.174L239.324 187.064C233.377 187.04 228.704 181.841 229.304 175.915L231.233 156.867Z" fill="#2183CF"/>
<path d="M234.572 174.402L225.759 147.285L243.147 147.199L234.572 174.402Z" fill="#FFB876"/>
<path d="M247.047 106.842C247.59 104.347 249.68 102.477 252.212 102.22C255.255 101.912 257.992 104.012 258.479 107.03L264.032 141.455C264.908 146.89 261.225 152.061 255.794 153.019L250.775 153.904C243.81 155.132 237.884 148.944 239.392 142.017L247.047 106.842Z" fill="#704C23"/>
<path d="M163.215 147.973C162.047 146.057 162.298 143.598 163.828 141.958L167.078 138.476C169.147 136.259 172.697 136.379 174.611 138.731L203.916 174.73C205.455 176.62 205.407 179.344 203.802 181.178L196.302 189.753C194.079 192.295 190.028 191.947 188.27 189.064L163.215 147.973Z" fill="#2183CF"/>
<path d="M148.502 139.283C147.816 136.711 150.094 134.325 152.695 134.89L157.387 135.91C158.12 136.07 158.879 136.062 159.608 135.888L162.842 135.118C165.984 134.37 169 136.753 169 139.982V140.77C169 144.167 165.685 146.575 162.455 145.525L150.84 141.75C149.692 141.377 148.812 140.449 148.502 139.283Z" fill="#FDCA9B"/>
<path d="M55.8605 139.748L26.2389 79.4227C24.2828 75.4388 27.1791 70.7836 31.6172 70.7781L79.9328 70.7182C84.371 70.7127 87.2788 75.3608 85.3325 79.3494L55.8605 139.748Z" fill="#F09B2A"/>
<circle cx="55.7466" cy="65.6998" r="33" fill="#F09B2A"/>
<ellipse cx="55.7466" cy="66.1998" rx="14" ry="13.5" fill="white"/>
<path d="M13.1673 233.15C11.1573 233.15 9.2373 232.82 7.4073 232.16C5.5773 231.5 4.0023 230.525 2.6823 229.235L4.8423 225.32C6.2523 226.46 7.63231 227.3 8.98231 227.84C10.3323 228.38 11.6523 228.65 12.9423 228.65C14.1123 228.65 15.0423 228.44 15.7323 228.02C16.4523 227.6 16.8123 226.97 16.8123 226.13C16.8123 225.26 16.3773 224.675 15.5073 224.375C14.6373 224.045 13.4223 223.64 11.8623 223.16C10.1223 222.62 8.66731 222.065 7.4973 221.495C6.3273 220.925 5.4423 220.235 4.8423 219.425C4.2723 218.615 3.9873 217.565 3.9873 216.275C3.9873 213.965 4.8573 212.12 6.5973 210.74C8.3373 209.36 10.6473 208.67 13.5273 208.67C15.2073 208.67 16.7973 208.94 18.2973 209.48C19.7973 209.99 21.1623 210.83 22.3923 212L19.9623 215.825C17.6523 214.025 15.4173 213.125 13.2573 213.125C12.2973 213.125 11.4423 213.305 10.6923 213.665C9.97231 214.025 9.61231 214.655 9.61231 215.555C9.61231 216.395 9.95731 216.995 10.6473 217.355C11.3673 217.715 12.4473 218.105 13.8873 218.525C15.7473 219.095 17.3223 219.65 18.6123 220.19C19.9323 220.73 20.9223 221.42 21.5823 222.26C22.2723 223.1 22.6173 224.24 22.6173 225.68C22.6173 228.02 21.7623 229.85 20.0523 231.17C18.3423 232.49 16.0473 233.15 13.1673 233.15ZM26.7186 205.835V199.85H32.7486V205.835H26.7186ZM26.7186 232.7V209.12H32.7486V232.7H26.7186ZM52.3184 231.485C51.5084 231.845 50.5034 232.205 49.3034 232.565C48.1334 232.925 46.9184 233.105 45.6584 233.105C44.5484 233.105 43.5284 232.91 42.5984 232.52C41.6684 232.13 40.9184 231.515 40.3484 230.675C39.8084 229.805 39.5384 228.68 39.5384 227.3V213.755H36.4334V209.12H39.5384V201.47H45.5684V209.12H50.5184V213.755H45.5684V225.275C45.5684 226.085 45.7784 226.67 46.1984 227.03C46.6484 227.39 47.1884 227.57 47.8184 227.57C48.4484 227.57 49.0634 227.465 49.6634 227.255C50.2634 227.045 50.7434 226.865 51.1034 226.715L52.3184 231.485ZM66.0863 233.15C63.5363 233.15 61.3313 232.595 59.4713 231.485C57.6413 230.375 56.2163 228.905 55.1963 227.075C54.1763 225.215 53.6663 223.205 53.6663 221.045C53.6663 218.825 54.1613 216.785 55.1513 214.925C56.1713 213.035 57.6113 211.535 59.4713 210.425C61.3313 209.285 63.5513 208.715 66.1313 208.715C68.7113 208.715 70.9163 209.285 72.7463 210.425C74.5763 211.535 75.9713 213.02 76.9313 214.88C77.9213 216.71 78.4163 218.69 78.4163 220.82C78.4163 221.6 78.3713 222.275 78.2813 222.845H60.0563C60.2063 224.675 60.8813 226.115 62.0813 227.165C63.3113 228.215 64.7213 228.74 66.3113 228.74C67.5113 228.74 68.6363 228.455 69.6863 227.885C70.7663 227.285 71.5013 226.505 71.8913 225.545L77.0663 226.985C76.1963 228.785 74.8013 230.27 72.8813 231.44C70.9613 232.58 68.6963 233.15 66.0863 233.15ZM59.9213 219.02H72.2513C72.0713 217.25 71.3963 215.825 70.2263 214.745C69.0863 213.635 67.6913 213.08 66.0413 213.08C64.4213 213.08 63.0263 213.635 61.8563 214.745C60.7163 215.825 60.0713 217.25 59.9213 219.02ZM107.03 233.15C105.17 233.15 103.55 232.73 102.17 231.89C100.79 231.05 99.7103 229.94 98.9303 228.56V242.285H92.9003V209.12H98.1653V213.17C99.0353 211.79 100.16 210.71 101.54 209.93C102.95 209.12 104.54 208.715 106.31 208.715C108.44 208.715 110.33 209.27 111.98 210.38C113.63 211.46 114.935 212.93 115.895 214.79C116.855 216.62 117.335 218.645 117.335 220.865C117.335 223.175 116.885 225.26 115.985 227.12C115.115 228.95 113.9 230.42 112.34 231.53C110.81 232.61 109.04 233.15 107.03 233.15ZM105.005 228.02C106.235 228.02 107.3 227.69 108.2 227.03C109.13 226.34 109.85 225.455 110.36 224.375C110.9 223.265 111.17 222.095 111.17 220.865C111.17 219.545 110.885 218.36 110.315 217.31C109.745 216.23 108.965 215.39 107.975 214.79C107.015 214.16 105.905 213.845 104.645 213.845C103.505 213.845 102.365 214.22 101.225 214.97C100.085 215.72 99.3203 216.665 98.9303 217.805V223.34C99.4703 224.66 100.295 225.77 101.405 226.67C102.515 227.57 103.715 228.02 105.005 228.02ZM121.376 199.85H127.406V225.14C127.406 226.25 127.586 226.985 127.946 227.345C128.306 227.705 128.801 227.885 129.431 227.885C129.911 227.885 130.406 227.825 130.916 227.705C131.426 227.585 131.876 227.435 132.266 227.255L133.076 231.845C132.266 232.235 131.321 232.535 130.241 232.745C129.161 232.955 128.186 233.06 127.316 233.06C125.426 233.06 123.956 232.565 122.906 231.575C121.886 230.555 121.376 229.115 121.376 227.255V199.85ZM134.083 225.725C134.083 224.195 134.503 222.86 135.343 221.72C136.213 220.55 137.413 219.65 138.943 219.02C140.473 218.39 142.228 218.075 144.208 218.075C145.198 218.075 146.203 218.165 147.223 218.345C148.243 218.495 149.128 218.72 149.878 219.02V217.76C149.878 216.26 149.428 215.105 148.528 214.295C147.658 213.485 146.353 213.08 144.613 213.08C143.323 213.08 142.093 213.305 140.923 213.755C139.753 214.205 138.523 214.865 137.233 215.735L135.298 211.775C136.858 210.755 138.448 209.99 140.068 209.48C141.718 208.97 143.443 208.715 145.243 208.715C148.603 208.715 151.213 209.555 153.073 211.235C154.963 212.915 155.908 215.315 155.908 218.435V225.95C155.908 226.61 156.013 227.075 156.223 227.345C156.433 227.585 156.808 227.735 157.348 227.795V232.7C156.808 232.82 156.313 232.895 155.863 232.925C155.443 232.985 155.083 233.015 154.783 233.015C153.583 233.015 152.668 232.745 152.038 232.205C151.408 231.665 151.033 231.005 150.913 230.225L150.778 229.01C149.728 230.36 148.438 231.395 146.908 232.115C145.408 232.805 143.863 233.15 142.273 233.15C140.683 233.15 139.273 232.835 138.043 232.205C136.813 231.545 135.838 230.66 135.118 229.55C134.428 228.41 134.083 227.135 134.083 225.725ZM148.753 226.94C149.503 226.22 149.878 225.53 149.878 224.87V222.485C148.318 221.855 146.743 221.54 145.153 221.54C143.563 221.54 142.273 221.885 141.283 222.575C140.293 223.235 139.798 224.12 139.798 225.23C139.798 226.13 140.158 226.94 140.878 227.66C141.598 228.38 142.633 228.74 143.983 228.74C144.883 228.74 145.753 228.575 146.593 228.245C147.463 227.915 148.183 227.48 148.753 226.94ZM183.458 232.7H177.428V219.47C177.428 217.58 177.098 216.2 176.438 215.33C175.778 214.46 174.863 214.025 173.693 214.025C172.883 214.025 172.058 214.235 171.218 214.655C170.408 215.075 169.673 215.66 169.013 216.41C168.353 217.13 167.873 217.97 167.573 218.93V232.7H161.543V209.12H166.988V213.485C167.858 212.015 169.118 210.86 170.768 210.02C172.418 209.15 174.278 208.715 176.348 208.715C177.818 208.715 179.018 208.985 179.948 209.525C180.878 210.035 181.598 210.74 182.108 211.64C182.618 212.51 182.963 213.5 183.143 214.61C183.353 215.72 183.458 216.845 183.458 217.985V232.7ZM210.616 232.7H204.586V219.47C204.586 217.58 204.256 216.2 203.596 215.33C202.936 214.46 202.021 214.025 200.851 214.025C200.041 214.025 199.216 214.235 198.376 214.655C197.566 215.075 196.831 215.66 196.171 216.41C195.511 217.13 195.031 217.97 194.731 218.93V232.7H188.701V209.12H194.146V213.485C195.016 212.015 196.276 210.86 197.926 210.02C199.576 209.15 201.436 208.715 203.506 208.715C204.976 208.715 206.176 208.985 207.106 209.525C208.036 210.035 208.756 210.74 209.266 211.64C209.776 212.51 210.121 213.5 210.301 214.61C210.511 215.72 210.616 216.845 210.616 217.985V232.7ZM215.859 205.835V199.85H221.889V205.835H215.859ZM215.859 232.7V209.12H221.889V232.7H215.859ZM249.244 232.7H243.214V219.47C243.214 217.58 242.884 216.2 242.224 215.33C241.564 214.46 240.649 214.025 239.479 214.025C238.669 214.025 237.844 214.235 237.004 214.655C236.194 215.075 235.459 215.66 234.799 216.41C234.139 217.13 233.659 217.97 233.359 218.93V232.7H227.329V209.12H232.774V213.485C233.644 212.015 234.904 210.86 236.554 210.02C238.204 209.15 240.064 208.715 242.134 208.715C243.604 208.715 244.804 208.985 245.734 209.525C246.664 210.035 247.384 210.74 247.894 211.64C248.404 212.51 248.749 213.5 248.929 214.61C249.139 215.72 249.244 216.845 249.244 217.985V232.7ZM263.712 232.835C261.612 232.835 259.767 232.295 258.177 231.215C256.587 230.135 255.342 228.695 254.442 226.895C253.542 225.065 253.092 223.07 253.092 220.91C253.092 218.63 253.557 216.575 254.487 214.745C255.417 212.885 256.707 211.415 258.357 210.335C260.007 209.255 261.912 208.715 264.072 208.715C265.902 208.715 267.507 209.135 268.887 209.975C270.267 210.785 271.407 211.88 272.307 213.26V209.12H277.572V231.575C277.572 233.915 277.002 235.91 275.862 237.56C274.752 239.24 273.207 240.515 271.227 241.385C269.247 242.285 266.997 242.735 264.477 242.735C261.897 242.735 259.722 242.3 257.952 241.43C256.212 240.59 254.712 239.39 253.452 237.83L256.737 234.635C257.637 235.745 258.762 236.615 260.112 237.245C261.492 237.875 262.947 238.19 264.477 238.19C265.737 238.19 266.892 237.95 267.942 237.47C269.022 237.02 269.892 236.3 270.552 235.31C271.212 234.35 271.542 233.105 271.542 231.575V228.605C270.762 229.955 269.652 231.005 268.212 231.755C266.802 232.475 265.302 232.835 263.712 232.835ZM265.737 228.02C267.057 228.02 268.242 227.63 269.292 226.85C270.372 226.07 271.122 225.14 271.542 224.06V218.435C271.002 217.055 270.147 215.945 268.977 215.105C267.837 214.265 266.637 213.845 265.377 213.845C264.147 213.845 263.067 214.19 262.137 214.88C261.237 215.57 260.532 216.47 260.022 217.58C259.512 218.66 259.257 219.83 259.257 221.09C259.257 222.38 259.542 223.55 260.112 224.6C260.682 225.65 261.447 226.49 262.407 227.12C263.397 227.72 264.507 228.02 265.737 228.02Z" fill="#2183CF"/>
</svg>
