<svg width="371" height="211" viewBox="0 0 371 211" fill="none" xmlns="http://www.w3.org/2000/svg">
<path d="M81 100C81 44.7715 125.772 0 181 0H215C270.228 0 315 44.7715 315 100V157H81V100Z" fill="#EBF9FA"/>
<path d="M0 180.5C0 128.309 42.3091 86 94.5 86C146.691 86 189 128.309 189 180.5V201C189 206.523 184.523 211 179 211H10C4.47715 211 0 206.523 0 201V180.5Z" fill="#F7F2F2"/>
<path d="M219 157C219 115.026 253.026 81 295 81C336.974 81 371 115.026 371 157V173.727C371 178.848 366.848 183 361.727 183H228.273C223.152 183 219 178.848 219 173.727V157Z" fill="#F9E7F1"/>
<path d="M167 86H210.516L211.666 114.68C211.848 119.22 208.217 123 203.673 123H175C170.582 123 167 119.418 167 115V86Z" fill="#C4C4C4"/>
<path d="M105.076 76.976C105.601 71.8766 109.897 68 115.023 68H117.236C122.252 68 126.492 71.7156 127.15 76.6879L133.503 124.688C134.296 130.68 129.633 136 123.589 136H110.082C104.154 136 99.5278 130.873 100.135 124.976L105.076 76.976Z" fill="#FFE299"/>
<path d="M139.817 69.8413C140.171 65.413 143.868 62 148.311 62C152.679 62 156.34 65.3034 156.787 69.6488L161.865 118.976C162.472 124.873 157.846 130 151.918 130H145.833C139.995 130 135.399 125.021 135.865 119.202L139.817 69.8413Z" fill="#FFE299"/>
<path d="M153.706 78.3851C153.706 92.4049 145.52 107.785 133.727 107.785C121.934 107.785 111 92.4049 111 78.3851C111 64.3653 120.56 53 132.353 53C144.146 53 153.706 64.3653 153.706 78.3851Z" fill="#FDCA9B"/>
<rect x="128" y="99" width="12" height="16" rx="2" fill="#FDCA9B"/>
<path d="M208 93.3851C208 107.405 200.525 122.785 189.755 122.785C178.985 122.785 169 107.405 169 93.3851C169 79.3653 177.73 68 188.5 68C199.27 68 208 79.3653 208 93.3851Z" fill="#D3AE8B"/>
<rect x="185.525" y="114" width="10.9588" height="16" rx="2" fill="#D3AE8B"/>
<path d="M115.216 118.699C115.376 116.059 117.563 114 120.207 114H146.333C148.961 114 151.14 116.034 151.321 118.656L154.631 166.656C154.831 169.546 152.54 172 149.643 172H117.311C114.431 172 112.146 169.573 112.32 166.699L115.216 118.699Z" fill="#2183CF"/>
<path d="M167.225 130.215C167.102 127.372 169.374 125 172.22 125H209.78C212.626 125 214.898 127.372 214.775 130.215L212.706 178.215C212.591 180.891 210.389 183 207.711 183H174.289C171.611 183 169.409 180.891 169.294 178.215L167.225 130.215Z" fill="#5DBED3"/>
<path d="M225.197 101.189C225.089 98.3556 227.357 96 230.193 96H267.807C270.643 96 272.911 98.3556 272.803 101.189L270.682 157.189C270.58 159.875 268.374 162 265.686 162H232.314C229.626 162 227.42 159.875 227.318 157.189L225.197 101.189Z" fill="#F09B2A"/>
<path d="M134.926 120.78C134.535 121.381 133.657 121.388 133.257 120.792L128.133 113.149C127.689 112.487 128.159 111.598 128.956 111.592L139.095 111.519C139.892 111.513 140.375 112.396 139.941 113.064L134.926 120.78Z" fill="#FDCA9B"/>
<path d="M195.227 127.699C193.272 130.707 188.88 130.739 186.882 127.759L185.132 125.149C184.688 124.487 185.158 123.598 185.955 123.592L196.094 123.519C196.891 123.513 197.374 124.396 196.94 125.064L195.227 127.699Z" fill="#D3AE8B"/>
<path d="M267.706 62.3851C267.706 76.4049 259.52 91.7845 247.727 91.7845C235.934 91.7845 225 76.4049 225 62.3851C225 48.3653 234.56 37 246.353 37C258.146 37 267.706 48.3653 267.706 62.3851Z" fill="#FFDDBD"/>
<rect x="242" y="83" width="12" height="16" rx="2" fill="#FFDDBD"/>
<path d="M252.336 100.454C250.413 103.678 245.754 103.712 243.785 100.515L242.606 98.6009C242.197 97.9374 242.671 97.082 243.45 97.0764L252.622 97.0105C253.401 97.0049 253.887 97.8534 253.488 98.5227L252.336 100.454Z" fill="#FFDDBD"/>
<path d="M167 86.39C167 75.6812 175.681 67 186.39 67H191.659C202.341 67 211 75.6591 211 86.3405C211 87.6537 209.714 88.583 208.457 88.2032C193.868 83.7955 184.545 83.9774 169.51 88.2631C168.26 88.6195 167 87.6901 167 86.39Z" fill="#C4C4C4"/>
<path d="M108.61 78.8019C103.302 74.2808 102.665 66.3133 107.186 61.0059L112.652 54.5896C117.164 49.2934 125.114 48.6573 130.411 53.169C131.044 53.7081 130.986 54.7036 130.306 55.1808C120.605 61.9811 116.039 67.5302 110.571 78.3968C110.201 79.1328 109.237 79.3362 108.61 78.8019Z" fill="#FFE299"/>
<path d="M154.414 73.385C158.41 66.195 155.82 57.1273 148.63 53.1318L141.691 49.2757C134.517 45.2891 125.47 47.873 121.483 55.0469C121.003 55.9117 121.49 56.9965 122.451 57.2328C135.274 60.3863 142.224 64.4119 152.064 73.7352C152.776 74.4093 153.938 74.2417 154.414 73.385Z" fill="#FFE299"/>
<path d="M234.583 40.3695C234.858 40.1235 235.172 39.9056 235.496 39.7303C245.877 34.1239 246.791 35.6294 265.047 37.5964C267.028 37.8098 268.241 39.8541 267.959 41.826C267.399 45.7466 268.579 49.0089 270.202 53.0357C271.71 56.7785 268.255 60.2836 264.42 59.0284L247.882 53.6157C246.673 53.2201 245.359 53.3001 244.207 53.8393L226.397 62.1759C224.506 63.0608 222.333 61.7758 222.617 59.7079C223.507 53.2304 227.592 46.6234 234.583 40.3695Z" fill="#704C23"/>
</svg>
